<svg width="154" height="69" viewBox="0 0 154 69" fill="none" xmlns="http://www.w3.org/2000/svg">
<path d="M26.5117 17.3164C26.5117 18.1628 26.1732 18.9414 25.4961 19.6523C24.8529 20.3294 24.0573 20.9388 23.1094 21.4805C22.1953 21.9883 21.2474 22.4115 20.2656 22.75C19.2839 23.0885 18.4714 23.3255 17.8281 23.4609C17.5573 26.0677 17.3372 28.6745 17.168 31.2812C17.0326 33.8542 16.9648 36.444 16.9648 39.0508C16.9648 40.4388 16.9987 41.8099 17.0664 43.1641C17.1341 44.5182 17.168 45.8724 17.168 47.2266C17.168 47.8359 17.1003 48.513 16.9648 49.2578C16.8633 49.9688 16.6602 50.6458 16.3555 51.2891C16.0846 51.9323 15.6953 52.474 15.1875 52.9141C14.6797 53.3542 14.0534 53.5742 13.3086 53.5742C12.4284 53.5742 11.7174 53.3203 11.1758 52.8125C10.668 52.3385 10.2617 51.7461 9.95703 51.0352C9.6862 50.3242 9.5 49.5794 9.39844 48.8008C9.29688 47.9883 9.24609 47.2604 9.24609 46.6172C9.17839 44.5859 9.1276 42.5547 9.09375 40.5234C9.0599 38.4583 9.04297 36.3932 9.04297 34.3281C9.04297 32.6016 9.04297 30.9089 9.04297 29.25C9.07682 27.5911 9.09375 25.8984 9.09375 24.1719C8.61979 24.2396 8.12891 24.2904 7.62109 24.3242C7.14714 24.3581 6.65625 24.375 6.14844 24.375C5.74219 24.375 5.20052 24.3411 4.52344 24.2734C3.88021 24.1719 3.25391 24.0195 2.64453 23.8164C2.03516 23.5794 1.51042 23.2747 1.07031 22.9023C0.630208 22.4961 0.410156 21.9883 0.410156 21.3789C0.410156 20.3633 0.816406 19.4831 1.62891 18.7383C2.40755 17.9596 3.40625 17.2995 4.625 16.7578C5.8776 16.1823 7.2487 15.7083 8.73828 15.3359C10.2617 14.9297 11.7513 14.625 13.207 14.4219C14.6966 14.1849 16.0508 14.0156 17.2695 13.9141C18.5221 13.8125 19.487 13.7617 20.1641 13.7617C20.8073 13.7617 21.4844 13.7956 22.1953 13.8633C22.9401 13.8971 23.6341 14.0326 24.2773 14.2695C24.9206 14.5065 25.4453 14.862 25.8516 15.3359C26.2917 15.8099 26.5117 16.4701 26.5117 17.3164Z" fill="#4285F4"/>
<path d="M50.1055 44.8398C50.1055 45.4492 50.0716 46.2448 50.0039 47.2266C49.9701 48.2083 49.8346 49.1732 49.5977 50.1211C49.3607 51.0352 48.9883 51.8307 48.4805 52.5078C47.9727 53.1849 47.2617 53.5234 46.3477 53.5234C45.0951 53.5234 44.1302 53.1172 43.4531 52.3047C42.776 51.4922 42.4544 50.4766 42.4883 49.2578C41.4049 50.2057 40.1693 50.9505 38.7812 51.4922C37.4271 52.0339 36.0391 52.3047 34.6172 52.3047C33.6354 52.3047 32.7044 52.0677 31.8242 51.5938C30.944 51.1198 30.1654 50.5104 29.4883 49.7656C28.8112 49.0208 28.2695 48.1914 27.8633 47.2773C27.457 46.3294 27.2539 45.3984 27.2539 44.4844C27.2539 42.8594 27.7448 41.4375 28.7266 40.2188C29.7422 39 30.9779 37.9674 32.4336 37.1211C33.8893 36.2409 35.4297 35.5469 37.0547 35.0391C38.7135 34.5312 40.1862 34.1927 41.4727 34.0234C41.4727 33.8542 41.4727 33.7018 41.4727 33.5664C41.5065 33.431 41.5234 33.2786 41.5234 33.1094C41.5234 32.0599 41.2357 31.2135 40.6602 30.5703C40.0846 29.9271 39.2721 29.6055 38.2227 29.6055C37.3763 29.6055 36.6484 29.7578 36.0391 30.0625C35.4297 30.3333 34.8542 30.6549 34.3125 31.0273C33.7708 31.3659 33.2292 31.6875 32.6875 31.9922C32.1458 32.263 31.5365 32.3984 30.8594 32.3984C30.1146 32.3984 29.4714 32.1615 28.9297 31.6875C28.4219 31.2135 28.168 30.6042 28.168 29.8594C28.168 28.7422 28.4896 27.7266 29.1328 26.8125C29.8099 25.8984 30.6393 25.1367 31.6211 24.5273C32.6367 23.8841 33.7201 23.3932 34.8711 23.0547C36.056 22.6823 37.1393 22.4961 38.1211 22.4961C39.0352 22.4961 39.9492 22.6146 40.8633 22.8516C41.7773 23.0547 42.6406 23.3932 43.4531 23.8672C44.2656 24.3073 44.9935 24.8659 45.6367 25.543C46.3138 26.1862 46.8555 26.9479 47.2617 27.8281C47.8711 29.0807 48.362 30.418 48.7344 31.8398C49.1068 33.2279 49.3945 34.6667 49.5977 36.1562C49.8008 37.612 49.9362 39.0846 50.0039 40.5742C50.0716 42.0299 50.1055 43.4518 50.1055 44.8398ZM41.9805 43.2148L41.8281 39.7617C41.7604 39.7617 41.6927 39.7617 41.625 39.7617C41.5573 39.7279 41.4896 39.7109 41.4219 39.7109C40.9818 39.7109 40.4232 39.8294 39.7461 40.0664C39.1029 40.2695 38.4766 40.5742 37.8672 40.9805C37.2578 41.3529 36.7331 41.776 36.293 42.25C35.8867 42.724 35.6836 43.2148 35.6836 43.7227C35.6836 44.1966 35.8529 44.5182 36.1914 44.6875C36.5299 44.8568 36.9193 44.9414 37.3594 44.9414C38.1042 44.9414 38.8997 44.7552 39.7461 44.3828C40.5924 43.9766 41.3372 43.5872 41.9805 43.2148Z" fill="#DB4437"/>
<path d="M76.8008 43.9609C76.8008 45.112 76.4284 46.2461 75.6836 47.3633C74.9727 48.4466 74.0586 49.4284 72.9414 50.3086C71.8581 51.1549 70.6901 51.849 69.4375 52.3906C68.1849 52.8984 67.0339 53.1523 65.9844 53.1523C64.1901 53.1523 62.582 52.7122 61.1602 51.832C59.7721 50.918 58.6042 49.7669 57.6562 48.3789C56.7083 46.9909 55.9805 45.4674 55.4727 43.8086C54.9987 42.1159 54.7617 40.474 54.7617 38.8828C54.7617 37.1901 54.9987 35.3789 55.4727 33.4492C55.9466 31.5195 56.6576 29.7422 57.6055 28.1172C58.5872 26.4922 59.806 25.138 61.2617 24.0547C62.7513 22.9714 64.5117 22.4297 66.543 22.4297C67.694 22.4297 68.7943 22.6328 69.8438 23.0391C70.8932 23.4115 71.8073 23.9531 72.5859 24.6641C73.3646 25.375 73.9909 26.2214 74.4648 27.2031C74.9388 28.1849 75.1758 29.2852 75.1758 30.5039C75.1758 32.0951 74.8372 33.5846 74.1602 34.9727C73.4831 36.3607 72.5859 37.5625 71.4688 38.5781C70.3516 39.5938 69.0651 40.4232 67.6094 41.0664C66.1536 41.6758 64.6641 42.0143 63.1406 42.082C63.276 43.0638 63.6654 43.7747 64.3086 44.2148C64.9857 44.6549 65.7812 44.875 66.6953 44.875C67.3724 44.875 68.0326 44.7057 68.6758 44.3672C69.319 44.0286 69.9453 43.6562 70.5547 43.25C71.1641 42.8099 71.7565 42.4206 72.332 42.082C72.9414 41.7435 73.5508 41.5742 74.1602 41.5742C74.8372 41.5742 75.4466 41.7943 75.9883 42.2344C76.5299 42.6745 76.8008 43.25 76.8008 43.9609ZM68.5742 31.5195C68.5742 31.0794 68.4557 30.6224 68.2188 30.1484C67.9818 29.6745 67.6094 29.4375 67.1016 29.4375C66.3568 29.4375 65.7305 29.6406 65.2227 30.0469C64.7148 30.4193 64.2917 30.9102 63.9531 31.5195C63.6146 32.0951 63.3438 32.7214 63.1406 33.3984C62.9714 34.0755 62.8698 34.7018 62.8359 35.2773C63.3099 35.1758 63.8685 35.0404 64.5117 34.8711C65.1888 34.7018 65.8151 34.4818 66.3906 34.2109C67 33.9062 67.5078 33.5339 67.9141 33.0938C68.3542 32.6536 68.5742 32.1289 68.5742 31.5195Z" fill="#F4B400"/>
<path d="M91.24 22.1443C91.7309 22.9946 91.8016 23.7942 91.4522 24.5432C91.1322 25.2753 90.7303 26.035 90.2467 26.8224C89.7462 27.5805 89.3467 28.378 89.048 29.2149C88.7788 30.035 88.9319 30.9434 89.5074 31.9402C89.8121 32.468 90.1917 32.8547 90.6463 33.1004C91.1302 33.3292 91.6412 33.5033 92.1792 33.6227C92.7296 33.6958 93.3178 33.7667 93.9438 33.8353C94.5698 33.9039 95.1772 34.0418 95.766 34.2492C96.3841 34.4396 96.9797 34.7603 97.5528 35.2112C98.1552 35.6452 98.7019 36.2874 99.1927 37.1376C99.9037 38.369 100.284 39.7719 100.333 41.3464C100.394 42.8746 100.197 44.3955 99.742 45.9093C99.2992 47.3767 98.6229 48.7445 97.7132 50.0125C96.8034 51.2804 95.7475 52.2614 94.5454 52.9555C94.047 53.2432 93.5232 53.487 92.974 53.6868C92.4418 53.9159 91.9111 54.0464 91.3822 54.0781C90.8826 54.0929 90.3993 54.0006 89.9323 53.8011C89.4483 53.5723 89.0371 53.1647 88.6986 52.5784C88.2246 51.7575 88.0219 51.034 88.0905 50.408C88.1422 49.7527 88.3411 49.1493 88.6871 48.5976C89.0332 48.046 89.4425 47.5361 89.9149 47.0679C90.4166 46.5828 90.8574 46.0937 91.2374 45.6007C91.6004 45.0784 91.8416 44.5482 91.9609 44.0102C92.0803 43.4722 91.9538 42.8807 91.5814 42.2357C91.2259 41.62 90.6128 41.1335 89.742 40.7763C88.8836 40.3728 87.9496 39.9738 86.94 39.5794C85.9136 39.1556 84.9057 38.6625 83.9164 38.1001C82.9564 37.5207 82.1802 36.7179 81.5877 35.6917C80.8599 34.431 80.4405 33.1291 80.3295 31.7858C80.2309 30.3964 80.3782 29.0604 80.7715 27.7779C81.194 26.4785 81.8353 25.2873 82.6955 24.2043C83.5388 23.0919 84.5761 22.1803 85.8075 21.4694C86.2766 21.1985 86.7564 20.9801 87.247 20.8142C87.7669 20.6313 88.2704 20.5556 88.7577 20.587C89.228 20.5891 89.6758 20.7215 90.1011 20.9841C90.5387 21.2005 90.9184 21.5873 91.24 22.1443Z" fill="#4285F4"/>
<path d="M115.172 53.4727C113.445 53.4727 111.939 53.0156 110.652 52.1016C109.366 51.1875 108.283 50.0195 107.402 48.5977C106.522 47.1758 105.862 45.6016 105.422 43.875C104.982 42.1146 104.762 40.388 104.762 38.6953C104.762 36.901 104.982 35.056 105.422 33.1602C105.862 31.2305 106.539 29.487 107.453 27.9297C108.367 26.3385 109.535 25.0521 110.957 24.0703C112.379 23.0547 114.072 22.5469 116.035 22.5469C117.931 22.5469 119.539 23.0716 120.859 24.1211C122.214 25.1367 123.297 26.4232 124.109 27.9805C124.922 29.5039 125.497 31.1797 125.836 33.0078C126.174 34.8359 126.293 36.5625 126.191 38.1875C126.09 39.9818 125.802 41.793 125.328 43.6211C124.888 45.4492 124.228 47.0911 123.348 48.5469C122.467 50.0026 121.35 51.1875 119.996 52.1016C118.642 53.0156 117.034 53.4727 115.172 53.4727ZM115.68 30.5195C115.172 30.5195 114.715 30.7904 114.309 31.332C113.936 31.8737 113.615 32.5339 113.344 33.3125C113.107 34.0911 112.921 34.9206 112.785 35.8008C112.65 36.6471 112.582 37.3919 112.582 38.0352C112.582 38.8477 112.65 39.7279 112.785 40.6758C112.954 41.6237 113.174 42.5039 113.445 43.3164C113.716 44.0951 114.038 44.7552 114.41 45.2969C114.816 45.8047 115.273 46.0586 115.781 46.0586C116.323 46.0586 116.78 45.8047 117.152 45.2969C117.559 44.7891 117.88 44.1458 118.117 43.3672C118.354 42.5885 118.523 41.7422 118.625 40.8281C118.727 39.8802 118.777 39 118.777 38.1875C118.777 37.4427 118.71 36.6302 118.574 35.75C118.439 34.8359 118.236 33.9896 117.965 33.2109C117.728 32.4323 117.406 31.7891 117 31.2812C116.628 30.7734 116.188 30.5195 115.68 30.5195Z" fill="#0F9D58"/>
<path d="M141.172 53.4727C139.445 53.4727 137.939 53.0156 136.652 52.1016C135.366 51.1875 134.283 50.0195 133.402 48.5977C132.522 47.1758 131.862 45.6016 131.422 43.875C130.982 42.1146 130.762 40.388 130.762 38.6953C130.762 36.901 130.982 35.056 131.422 33.1602C131.862 31.2305 132.539 29.487 133.453 27.9297C134.367 26.3385 135.535 25.0521 136.957 24.0703C138.379 23.0547 140.072 22.5469 142.035 22.5469C143.931 22.5469 145.539 23.0716 146.859 24.1211C148.214 25.1367 149.297 26.4232 150.109 27.9805C150.922 29.5039 151.497 31.1797 151.836 33.0078C152.174 34.8359 152.293 36.5625 152.191 38.1875C152.09 39.9818 151.802 41.793 151.328 43.6211C150.888 45.4492 150.228 47.0911 149.348 48.5469C148.467 50.0026 147.35 51.1875 145.996 52.1016C144.642 53.0156 143.034 53.4727 141.172 53.4727ZM141.68 30.5195C141.172 30.5195 140.715 30.7904 140.309 31.332C139.936 31.8737 139.615 32.5339 139.344 33.3125C139.107 34.0911 138.921 34.9206 138.785 35.8008C138.65 36.6471 138.582 37.3919 138.582 38.0352C138.582 38.8477 138.65 39.7279 138.785 40.6758C138.954 41.6237 139.174 42.5039 139.445 43.3164C139.716 44.0951 140.038 44.7552 140.41 45.2969C140.816 45.8047 141.273 46.0586 141.781 46.0586C142.323 46.0586 142.78 45.8047 143.152 45.2969C143.559 44.7891 143.88 44.1458 144.117 43.3672C144.354 42.5885 144.523 41.7422 144.625 40.8281C144.727 39.8802 144.777 39 144.777 38.1875C144.777 37.4427 144.71 36.6302 144.574 35.75C144.439 34.8359 144.236 33.9896 143.965 33.2109C143.728 32.4323 143.406 31.7891 143 31.2812C142.628 30.7734 142.188 30.5195 141.68 30.5195Z" fill="#DB4437"/>
</svg>
